<svg width="133" height="39" viewBox="0 0 133 39" fill="none" xmlns="http://www.w3.org/2000/svg">
<path d="M41.0228 31V7.72727H50.341C52.0532 7.72727 53.4812 7.98106 54.6251 8.48864C55.7691 8.99621 56.6289 9.70076 57.2047 10.6023C57.7804 11.4962 58.0683 12.5265 58.0683 13.6932C58.0683 14.6023 57.8865 15.4015 57.5229 16.0909C57.1592 16.7727 56.6592 17.3333 56.0229 17.7727C55.3941 18.2045 54.6744 18.5114 53.8638 18.6932V18.9205C54.7501 18.9583 55.5797 19.2083 56.3524 19.6705C57.1327 20.1326 57.7653 20.7803 58.2501 21.6136C58.735 22.4394 58.9774 23.4242 58.9774 24.5682C58.9774 25.803 58.6706 26.9053 58.0569 27.875C57.4509 28.8371 56.5532 29.5985 55.3638 30.1591C54.1744 30.7197 52.7085 31 50.966 31H41.0228ZM45.9433 26.9773H49.9547C51.3259 26.9773 52.3259 26.7159 52.9547 26.1932C53.5835 25.6629 53.8979 24.9583 53.8979 24.0795C53.8979 23.4356 53.7425 22.8674 53.4319 22.375C53.1213 21.8826 52.6782 21.4962 52.1024 21.2159C51.5342 20.9356 50.8562 20.7955 50.0683 20.7955H45.9433V26.9773ZM45.9433 17.4659H49.591C50.2653 17.4659 50.8638 17.3485 51.3865 17.1136C51.9168 16.8712 52.3335 16.5303 52.6365 16.0909C52.9471 15.6515 53.1024 15.125 53.1024 14.5114C53.1024 13.6705 52.8032 12.9924 52.2047 12.4773C51.6138 11.9621 50.7728 11.7045 49.6819 11.7045H45.9433V17.4659ZM62.1791 31V7.72727H67.0996V26.9432H77.0768V31H62.1791ZM85.2558 7.72727V31H80.3353V7.72727H85.2558ZM108.77 7.72727V31H104.52L94.395 16.3523H94.2246V31H89.3041V7.72727H93.6223L103.668 22.3636H103.872V7.72727H108.77ZM112.835 31V7.72727H117.756V17.9886H118.063L126.438 7.72727H132.335L123.699 18.1477L132.438 31H126.551L120.176 21.4318L117.756 24.3864V31H112.835Z" fill="white"/>
<path d="M23.4524 34.0521C22.5058 35.2805 21.0428 36 19.492 36H1.88244C1.08095 36 0.605134 35.1043 1.05382 34.4402L11.9214 18.3546C12.1579 18.0045 12.1489 17.5434 11.8987 17.2029L1.16903 2.5919C0.684022 1.93145 1.15563 1 1.97504 1H19.6172C21.0966 1 22.5 1.65515 23.45 2.78922L35.4839 17.1547C35.7853 17.5145 35.796 18.0355 35.5094 18.4073L23.4524 34.0521Z" fill="#9E00FF"/>
</svg>
