<svg width="15" height="25" viewBox="0 0 135 136" fill="none" xmlns="http://www.w3.org/2000/svg">
<path d="M125.581 67.9427C125.581 100.23 99.5773 126.405 67.5 126.405V135.885C104.779 135.885 135 105.467 135 67.9427H125.581ZM67.5 126.405C35.4226 126.405 9.4186 100.23 9.4186 67.9427H0C0 105.467 30.2208 135.885 67.5 135.885V126.405ZM9.4186 67.9427C9.4186 35.6549 35.4226 9.48038 67.5 9.48038V0C30.2208 0 0 30.419 0 67.9427H9.4186ZM89.4767 82.1633C69.5369 82.1633 53.3721 65.8924 53.3721 45.8218H43.9535C43.9535 71.1288 64.3347 91.6437 89.4767 91.6437V82.1633ZM120.403 64.5867C114.073 75.1307 102.589 82.1633 89.4767 82.1633V91.6437C106.021 91.6437 120.5 82.7568 128.465 69.4893L120.403 64.5867ZM53.3721 45.8218C53.3721 32.624 60.3588 21.0641 70.8342 14.6925L65.9635 6.57843C52.7824 14.5954 43.9535 29.1685 43.9535 45.8218H53.3721ZM67.5 9.48038C66.9443 9.48038 66.2925 9.22807 65.8197 8.73257C65.4191 8.31284 65.3262 7.91574 65.3042 7.75514C65.2778 7.5582 65.291 6.98748 65.9635 6.57843L70.8342 14.6925C73.9938 12.771 75.0098 9.25272 74.638 6.48629C74.2525 3.61051 71.9996 0 67.5 0V9.48038ZM128.465 69.4893C128.058 70.1662 127.491 70.1795 127.296 70.1529C127.136 70.1308 126.741 70.0373 126.324 69.634C125.832 69.1581 125.581 68.5021 125.581 67.9427H135C135 63.4136 131.413 61.1459 128.556 60.7579C125.807 60.3837 122.312 61.4063 120.403 64.5867L128.465 69.4893Z" fill="white"/>
</svg>
