<svg width="26" height="26" viewBox="0 0 195 195" fill="none" xmlns="http://www.w3.org/2000/svg">
<path d="M48.9389 100.547C48.9389 125.793 69.4017 146.25 94.642 146.25C119.882 146.25 140.345 125.793 140.345 100.547C140.345 75.3005 119.888 54.8438 94.642 54.8438C69.4017 54.8438 48.9389 75.3005 48.9389 100.547ZM94.642 22.8516L81.7903 48.5611H107.5L94.642 22.8516ZM149.559 45.4411L122.289 54.5269L140.461 72.7045L149.559 45.4411ZM66.9947 54.5269L39.7312 45.4411L48.817 72.7106L66.9947 54.5269ZM42.4673 87.5002L16.7578 100.358L42.4673 113.21V87.5002ZM146.439 113.594L172.148 100.742L146.439 87.8902V113.594ZM94.642 178.242L107.494 152.533H81.7842L94.642 178.242ZM122.289 146.567L149.559 155.653L140.467 128.383L122.289 146.567ZM39.7312 155.653L67.0008 146.567L48.8231 128.389L39.7312 155.653Z" fill="white"/>
</svg>
